<svg width="17" height="14" viewBox="0 0 17 14" fill="none" xmlns="http://www.w3.org/2000/svg">
<path fill-rule="evenodd" clip-rule="evenodd" d="M16.2534 5.67933C16.2485 5.69644 16.2449 5.71433 16.2421 5.73222L14.3338 12.0089L10.1653 7.50089C10.0265 7.35156 9.80404 7.35233 9.66592 7.50322L7.48 9.90344C7.34188 10.0551 7.34188 10.3009 7.48 10.4533L7.83417 10.8422C7.973 10.9939 7.973 11.2404 7.83417 11.3921C7.70029 11.5383 7.46796 11.5383 7.33337 11.3921L5.56254 9.44767C5.52925 9.41033 5.49029 9.38233 5.44637 9.36289C5.40387 9.34344 5.35783 9.33333 5.3125 9.33333H5.31108C5.30258 9.33333 5.29479 9.33878 5.28629 9.33956C5.24946 9.34189 5.21192 9.34733 5.17721 9.36367C5.15029 9.37533 5.12833 9.39711 5.10496 9.41578C5.09079 9.42744 5.0745 9.43367 5.06175 9.44767L5.06104 9.44844C5.06104 9.44922 5.06033 9.44922 5.05962 9.44922C3.85192 10.7932 2.05204 12.7843 1.63412 13.2222H1.41667C1.16379 13.2222 0.935708 13.076 0.808917 12.8419L2.83758 5.32778C2.84325 5.30989 2.84821 5.292 2.85175 5.27411C2.92471 4.91633 3.20875 4.66667 3.54167 4.66667H14.5208H15.5833C15.9736 4.66667 16.2917 5.01589 16.2917 5.44444C16.2917 5.516 16.2789 5.58989 16.2534 5.67933ZM15.5833 3.88889H14.875V3.11111C14.875 2.25322 14.2389 1.55556 13.4583 1.55556H6.87579L5.56254 0.114333C5.49596 0.0412222 5.40671 0 5.3125 0H1.41667C0.635375 0 0 0.697667 0 1.55556V12.4444C0 12.6389 0.034 12.8326 0.101292 13.0192C0.102708 13.0216 0.111208 13.0472 0.116167 13.0566C0.34 13.6313 0.846458 14 1.41667 14H13.4583C14.0923 14 14.6441 13.5388 14.8176 12.8722C14.8205 12.8637 14.8226 12.8551 14.8254 12.8466L16.9299 5.92511C16.937 5.90333 16.9419 5.88078 16.9447 5.85744C16.9809 5.71356 17 5.57822 17 5.44444C17 4.58656 16.3639 3.88889 15.5833 3.88889Z" fill="#466EE9"/>
<path fill-rule="evenodd" clip-rule="evenodd" d="M6.18182 5.25C5.3295 5.25 4.63636 6.03487 4.63636 7C4.63636 7.96513 5.3295 8.75 6.18182 8.75C7.03414 8.75 7.72727 7.96513 7.72727 7C7.72727 6.03487 7.03414 5.25 6.18182 5.25Z" fill="#466EE9"/>
</svg>
