<svg width="18" height="18" viewBox="0 0 18 18" fill="none" xmlns="http://www.w3.org/2000/svg">
<path fill-rule="evenodd" clip-rule="evenodd" d="M18 9C18 13.9717 13.9702 18 9 18C4.02979 18 0 13.9717 0 9C0 4.03124 4.02979 0 9 0C13.9702 0 18 4.03124 18 9ZM9.24151 2.97581C7.2638 2.97581 6.00242 3.80892 5.01191 5.28961C4.88359 5.48144 4.92652 5.74015 5.11044 5.87961L6.36968 6.83441C6.55857 6.97765 6.8277 6.94357 6.97446 6.7574C7.62275 5.93514 8.06727 5.45832 9.054 5.45832C9.79538 5.45832 10.7124 5.93546 10.7124 6.65438C10.7124 7.19786 10.2637 7.47697 9.53173 7.88737L9.47014 7.92186C8.62474 8.39488 7.54839 8.99714 7.54839 10.4516V10.5968C7.54839 10.8373 7.74338 11.0323 7.98387 11.0323H10.0161C10.2566 11.0323 10.4516 10.8373 10.4516 10.5968V10.5484C10.4516 10.1579 10.8831 9.90888 11.4198 9.59914C12.3028 9.08961 13.4705 8.41576 13.4705 6.67742C13.4705 4.57251 11.2871 2.97581 9.24151 2.97581ZM7.33065 13.6452C7.33065 12.7247 8.0795 11.9758 9 11.9758C9.9205 11.9758 10.6694 12.7247 10.6694 13.6452C10.6694 14.5656 9.9205 15.3145 9 15.3145C8.0795 15.3145 7.33065 14.5656 7.33065 13.6452Z" fill="#466EE9"/>
</svg>
