<svg width="15" height="18" viewBox="0 0 15 18" fill="none" xmlns="http://www.w3.org/2000/svg">
<path fill-rule="evenodd" clip-rule="evenodd" d="M10.9091 8.18182C10.5327 8.18182 10.2273 7.81527 10.2273 7.36364C10.2273 6.912 10.5327 6.54545 10.9091 6.54545C11.2855 6.54545 11.5909 6.912 11.5909 7.36364C11.5909 7.81527 11.2855 8.18182 10.9091 8.18182ZM7.5 8.18182C7.12364 8.18182 6.81818 7.81527 6.81818 7.36364C6.81818 6.912 7.12364 6.54545 7.5 6.54545C7.87636 6.54545 8.18182 6.912 8.18182 7.36364C8.18182 7.81527 7.87636 8.18182 7.5 8.18182ZM4.09091 8.18182C3.71455 8.18182 3.40909 7.81527 3.40909 7.36364C3.40909 6.912 3.71455 6.54545 4.09091 6.54545C4.46727 6.54545 4.77273 6.912 4.77273 7.36364C4.77273 7.81527 4.46727 8.18182 4.09091 8.18182ZM13.6364 0H1.36364C0.611591 0 0 0.733909 0 1.63636V17.5909C0 17.7562 0.0831818 17.9059 0.210682 17.9689C0.252273 17.9902 0.297273 18 0.340909 18C0.429545 18 0.516818 17.9583 0.582273 17.8805L3.89114 13.9091H13.6364C14.3884 13.9091 15 13.1752 15 12.2727V1.63636C15 0.733909 14.3884 0 13.6364 0Z" fill="#466EE9"/>
</svg>
