<svg width="11" height="10" viewBox="0 0 11 10" fill="none" xmlns="http://www.w3.org/2000/svg">
<path fill-rule="evenodd" clip-rule="evenodd" d="M0.0014257 4.64286C0.0014257 2.07812 2.46321 0 5.50071 0C8.5382 0 11 2.07812 11 4.64286C11 7.20759 8.5382 9.28571 5.50071 9.28571C4.79611 9.28571 4.12589 9.16964 3.50507 8.96652C2.87996 9.42634 1.8381 10 0.516984 10C0.31076 10 0.123871 9.87277 0.0422407 9.67634C-0.0393893 9.47991 -0.000722465 9.25223 0.141056 9.09598C0.151797 9.08705 0.817726 8.34152 1.1378 7.46205C0.428909 6.67857 0.0014257 5.70536 0.0014257 4.64286ZM3.80387 8.17162C4.35123 8.35794 4.92238 8.45343 5.50002 8.45343C7.98151 8.45343 10 6.78123 10 4.72708C10 2.67293 7.98151 1.00073 5.50002 1.00073C3.01854 1.00073 1.00003 2.67293 1.00003 4.72708C1.00003 5.7099 1.4695 6.45284 1.86108 6.90233L2.30676 7.41005L2.07743 8.06449C1.95844 8.40219 1.80483 8.71893 1.6469 9.00073C2.15748 8.82373 2.58152 8.56056 2.89089 8.32533L3.31277 8.00394L3.80387 8.17162Z" fill="#999494"/>
</svg>
