<svg width="17" height="18" viewBox="0 0 17 18" fill="none" xmlns="http://www.w3.org/2000/svg">
<path fill-rule="evenodd" clip-rule="evenodd" d="M16.785 11.1665L15.2592 10.2738C15.4125 9.4317 15.4125 8.5683 15.2592 7.72621L16.7851 6.83351C16.9593 6.73153 17.0402 6.52072 16.9805 6.32599C16.5842 5.03253 15.9075 3.86399 15.0225 2.89344C14.8861 2.74376 14.6656 2.7098 14.4914 2.81164L12.9668 3.7042C12.3253 3.14708 11.5878 2.71486 10.7914 2.42933V0.644428C10.7914 0.440223 10.6513 0.263744 10.4548 0.218998C9.14006 -0.0803604 7.79589 -0.0656266 6.54435 0.219252C6.34808 0.263953 6.20862 0.440603 6.20862 0.644501V2.42936C5.41223 2.71492 4.67474 3.14713 4.03325 3.70424L2.5086 2.81168C2.33448 2.70984 2.11398 2.7438 1.97757 2.89348C1.09255 3.86402 0.415863 5.03257 0.01952 6.32603C-0.0401641 6.5208 0.0407156 6.73161 0.21497 6.83355L1.74076 7.72625C1.58751 8.56832 1.58751 9.43171 1.74076 10.2738L0.214934 11.1665C0.0406798 11.2685 -0.0401999 11.4793 0.0194842 11.674C0.415827 12.9675 1.09255 14.136 1.97753 15.1066C2.11395 15.2562 2.33444 15.2902 2.50857 15.1884L4.03321 14.2958C4.67469 14.8529 5.41219 15.2851 6.20859 15.5707V17.3556C6.20859 17.5598 6.34869 17.7363 6.54525 17.781C7.85994 18.0804 9.20411 18.0656 10.4556 17.7807C10.6519 17.736 10.7914 17.5594 10.7914 17.3555V15.5707C11.5878 15.2851 12.3253 14.8529 12.9667 14.2958L14.4914 15.1884C14.6655 15.2902 14.886 15.2562 15.0224 15.1066C15.9075 14.136 16.5841 12.9675 16.9805 11.674C17.0402 11.4792 16.9593 11.2684 16.785 11.1665ZM8.5 6.09678C10.0794 6.09678 11.3643 7.39917 11.3643 9C11.3643 10.6008 10.0794 11.9032 8.5 11.9032C6.92064 11.9032 5.63574 10.6008 5.63574 9C5.63574 7.39917 6.92064 6.09678 8.5 6.09678Z" fill="#466EE9"/>
</svg>
