<svg width="17" height="18" viewBox="0 0 17 18" fill="none" xmlns="http://www.w3.org/2000/svg">
<path fill-rule="evenodd" clip-rule="evenodd" d="M9.20833 8.58807H16.6104C16.7096 8.58807 16.8045 8.54382 16.8711 8.46657C16.9384 8.38932 16.9717 8.28582 16.9632 8.18082C16.6069 3.81882 13.3585 0.379317 9.23879 0.00281671C9.14316 -0.00693329 9.04187 0.0283167 8.96891 0.0995667C8.89596 0.170817 8.85416 0.270567 8.85416 0.376317V8.21307C8.85416 8.42007 9.01283 8.58807 9.20833 8.58807Z" fill="#466EE9"/>
<path fill-rule="evenodd" clip-rule="evenodd" d="M16.6098 9.33813H10.2101C10.067 9.33813 9.93735 9.42963 9.88281 9.56988C9.82756 9.70938 9.85802 9.87063 9.95931 9.97863L14.4863 14.7711C14.5528 14.8424 14.6435 14.8814 14.737 14.8814H14.7519C14.8518 14.8769 14.9446 14.8274 15.0083 14.7479C16.136 13.3259 16.8124 11.5964 16.9626 9.74538C16.9711 9.64038 16.9378 9.53688 16.8712 9.45963C16.8039 9.38238 16.709 9.33813 16.6098 9.33813Z" fill="#466EE9"/>
<path fill-rule="evenodd" clip-rule="evenodd" d="M8.24996 9.22818C8.21808 9.19443 8.19188 9.15243 8.17417 9.10743C8.15504 9.05868 8.14583 9.01068 8.14583 8.96268V0.375927C8.14583 0.270927 8.10404 0.171177 8.03108 0.099177C7.95812 0.027927 7.85613 -0.010323 7.76121 0.002427C3.40921 0.399927 0 4.33668 0 8.96268C0 13.9262 3.81296 17.9627 8.5 17.9627C10.494 17.9627 12.4341 17.2142 13.9634 15.8544C14.0392 15.7862 14.0852 15.6879 14.0895 15.5837C14.0937 15.4779 14.0562 15.3759 13.986 15.3024L8.24996 9.22818Z" fill="#466EE9"/>
</svg>
