<svg width="30" height="26" viewBox="0 0 30 26" fill="none" xmlns="http://www.w3.org/2000/svg">
<path fill-rule="evenodd" clip-rule="evenodd" d="M26.8583 10.9247C26.8507 10.9516 26.8453 10.9797 26.841 11.0079L23.9225 20.8712L17.5471 13.7872C17.3347 13.5525 16.9946 13.5537 16.7833 13.7909L13.4402 17.5626C13.2289 17.801 13.2289 18.1872 13.4402 18.4267L13.9818 19.0379C14.1942 19.2762 14.1942 19.6636 13.9818 19.902C13.7771 20.1317 13.4217 20.1317 13.2159 19.902L10.5076 16.8464C10.4567 16.7877 10.3971 16.7437 10.3299 16.7132C10.2649 16.6826 10.1945 16.6667 10.1252 16.6667H10.123C10.11 16.6667 10.0981 16.6753 10.0851 16.6765C10.0287 16.6802 9.97133 16.6887 9.91824 16.7144C9.87708 16.7327 9.84349 16.767 9.80774 16.7963C9.78608 16.8146 9.76116 16.8244 9.74166 16.8464L9.74058 16.8476C9.74058 16.8489 9.73949 16.8489 9.73841 16.8489C7.89133 18.9608 5.13858 22.0897 4.49941 22.7779H4.16683C3.78008 22.7779 3.43124 22.5481 3.23733 22.1802L6.33999 10.3723C6.34866 10.3442 6.35624 10.3161 6.36166 10.288C6.47324 9.72574 6.90766 9.33341 7.41683 9.33341H24.2085H25.8335C26.4304 9.33341 26.9168 9.88218 26.9168 10.5556C26.9168 10.6681 26.8973 10.7842 26.8583 10.9247ZM25.8333 8.11111H24.75V6.88889C24.75 5.54078 23.7772 4.44444 22.5833 4.44444H12.5159L10.5074 2.17967C10.4056 2.06478 10.2691 2 10.125 2H4.16667C2.97175 2 2 3.09633 2 4.44444V21.5556C2 21.8611 2.052 22.1654 2.15492 22.4588C2.15708 22.4624 2.17008 22.5028 2.17767 22.5174C2.52 23.4207 3.29458 24 4.16667 24H22.5833C23.5529 24 24.3968 23.2752 24.6623 22.2278C24.6666 22.2143 24.6698 22.2009 24.6742 22.1874L27.8927 11.3109C27.9036 11.2767 27.9112 11.2412 27.9155 11.2046C27.9708 10.9784 28 10.7658 28 10.5556C28 9.20744 27.0272 8.11111 25.8333 8.11111Z" fill="#466EE9"/>
<path fill-rule="evenodd" clip-rule="evenodd" d="M10.9089 9.74976C9.40476 9.74976 8.18158 11.2074 8.18158 12.9998C8.18158 14.7921 9.40476 16.2498 10.9089 16.2498C12.4129 16.2498 13.6361 14.7921 13.6361 12.9998C13.6361 11.2074 12.4129 9.74976 10.9089 9.74976Z" fill="#466EE9"/>
</svg>
