<svg width="14" height="21" viewBox="0 0 14 21" fill="none" xmlns="http://www.w3.org/2000/svg">
<path d="M7.23108 8.69133C6.99017 8.45948 6.59853 8.45829 6.35638 8.69014L4.32283 10.6484L3.52474 9.87913C3.28382 9.64728 2.89219 9.64728 2.65127 9.87913C2.41036 10.111 2.41036 10.4879 2.65127 10.7198L3.88672 11.9087C4.00656 12.0253 4.1647 12.0835 4.32283 12.0835C4.48097 12.0835 4.63911 12.0253 4.76018 11.9099L7.23108 9.53195C7.47199 9.3001 7.47199 8.92318 7.23108 8.69133Z" fill="#466EE9"/>
<path d="M7.23108 13.1496C6.99017 12.9177 6.59853 12.9165 6.35638 13.1484L4.32283 15.1067L3.52474 14.3386C3.28382 14.1067 2.89219 14.1067 2.65127 14.3386C2.41036 14.5704 2.41036 14.9473 2.65127 15.1792L3.88672 16.3682C4.00656 16.4835 4.1647 16.5418 4.32283 16.5418C4.48097 16.5418 4.63911 16.4835 4.76018 16.3682L7.23108 13.9902C7.47199 13.7583 7.47199 13.3814 7.23108 13.1496Z" fill="#466EE9"/>
<path d="M10.9804 9.40845H8.78431C8.48125 9.40845 8.23529 9.80792 8.23529 10.3001C8.23529 10.7923 8.48125 11.1918 8.78431 11.1918H10.9804C11.2834 11.1918 11.5294 10.7923 11.5294 10.3001C11.5294 9.80792 11.2834 9.40845 10.9804 9.40845Z" fill="#466EE9"/>
<path d="M10.9804 14.7583H8.78431C8.48125 14.7583 8.23529 15.1578 8.23529 15.65C8.23529 16.1422 8.48125 16.5416 8.78431 16.5416H10.9804C11.2834 16.5416 11.5294 16.1422 11.5294 15.65C11.5294 15.1578 11.2834 14.7583 10.9804 14.7583Z" fill="#466EE9"/>
<path fill-rule="evenodd" clip-rule="evenodd" d="M12.8333 3.05525H10.5V2.41436C10.5 2.06059 10.2387 1.77348 9.91667 1.77348H8.65083C8.40933 1.02748 7.76067 0.491699 7 0.491699C6.23933 0.491699 5.59067 1.02748 5.34917 1.77348H4.08333C3.76133 1.77348 3.5 2.06059 3.5 2.41436V3.05525H1.16667C0.523833 3.05525 0 3.63077 0 4.33703V19.7183C0 20.4246 0.523833 21.0001 1.16667 21.0001H12.8333C13.4762 21.0001 14 20.4246 14 19.7183V4.33703C14 3.63077 13.4762 3.05525 12.8333 3.05525ZM4.66667 3.05525H5.83333C6.15533 3.05525 6.41667 2.76813 6.41667 2.41436C6.41667 2.06059 6.678 1.77348 7 1.77348C7.322 1.77348 7.58333 2.06059 7.58333 2.41436C7.58333 2.76813 7.84467 3.05525 8.16667 3.05525H9.33333V4.33703H4.66667V3.05525ZM1.16667 19.7183H12.8333V4.33703H10.5V4.97791C10.5 5.33169 10.2387 5.6188 9.91667 5.6188H4.08333C3.76133 5.6188 3.5 5.33169 3.5 4.97791V4.33703H1.16667V19.7183Z" fill="#466EE9"/>
</svg>
