<svg width="19" height="19" viewBox="0 0 19 19" fill="none" xmlns="http://www.w3.org/2000/svg">
<path d="M9.35198 0.00114767C14.6071 -0.0790829 18.8964 4.05706 18.9982 9.31183C19.0131 10.0833 18.9359 10.8343 18.7771 11.5546C18.5081 12.7742 18.3482 14.0154 18.3482 15.2643V17.6785C18.3482 18.0484 18.0484 18.3482 17.6785 18.3482H15.2643C14.0154 18.3482 12.7742 18.5081 11.5546 18.7771C10.8343 18.936 10.0834 19.0131 9.31194 18.9982C4.05715 18.8965 -0.0790105 14.6074 0.00114555 9.35232C0.0793348 4.22298 4.2227 0.0795228 9.35198 0.00114767Z" fill="url(#paint0_linear_0_2723)"/>
<path d="M19 11.026C18.9942 11.0548 18.9884 11.0836 18.9821 11.1125C18.7198 12.3471 18.564 13.6035 18.564 14.8679V17.3121C18.564 17.6862 18.2717 17.9898 17.9114 17.9898H15.5579C15.382 17.9898 15.2065 17.993 15.031 18L9.01961 11.7567C8.91666 11.6484 8.86518 11.4536 8.86518 11.1719C8.86518 9.93687 9.16868 9.04805 9.7765 8.50654C9.83738 8.44797 9.96091 8.34478 10.1458 8.19741C10.0948 8.15184 7.23589 5.17128 7.20275 5.14108C7.0671 5.02019 7 4.85471 7 4.64509C7 4.26906 7.25466 3.90091 7.76496 3.54061C8.27479 3.18039 8.92205 3 9.70582 3C10.6892 3 11.464 3.26262 12.0298 3.78652L19 11.026Z" fill="url(#paint1_linear_0_2723)"/>
<path d="M14 18.6864C13.2383 18.7387 12.4812 18.8471 11.7317 19L8.26919 15.4977C8.08988 15.3214 8 15.1161 8 14.8811C8 14.6363 8.08988 14.4283 8.26919 14.2571C8.4485 14.0858 8.67003 14 8.93375 14C9.20429 14 9.43852 14.0859 9.63599 14.2571L14 18.6864Z" fill="url(#paint2_linear_0_2723)"/>
<path fill-rule="evenodd" clip-rule="evenodd" d="M7.781 3.53729C7.26026 3.89568 7 4.26184 7 4.63582C7 4.84453 7.06901 5.00908 7.20713 5.12946C7.34507 5.25019 7.49401 5.31042 7.6534 5.31042C7.78092 5.31042 7.90295 5.25852 8.01999 5.15416C8.13681 5.04984 8.2431 4.93189 8.33873 4.80037C8.43439 4.66881 8.60172 4.55111 8.84078 4.44679C9.07985 4.34244 9.36927 4.29028 9.70943 4.29028C10.2954 4.29028 10.7539 4.43319 11.0849 4.71873C11.4158 5.00426 11.5814 5.40573 11.5814 5.92284C11.5814 6.17083 11.5473 6.40525 11.4793 6.62599C11.4114 6.84703 11.3043 7.05164 11.1579 7.24017C11.0114 7.42864 10.8834 7.57962 10.7738 7.6928C10.664 7.80593 10.4972 7.94885 10.2733 8.12121C10.0491 8.2936 9.90271 8.41205 9.834 8.47657C9.21391 9.01536 8.90388 9.89927 8.90388 11.1275C8.90388 11.4077 8.95646 11.6016 9.06154 11.7095C9.16665 11.8172 9.34169 11.871 9.587 11.871C10.0771 11.871 10.3224 11.7044 10.3224 11.3709C10.3224 10.7581 10.359 10.3012 10.4328 10C10.5065 9.69904 10.701 9.40323 11.0167 9.11291C11.0585 9.07002 11.189 8.94907 11.4077 8.75C11.6263 8.55119 11.8079 8.36844 11.9518 8.20161C12.0958 8.03501 12.2587 7.82533 12.4399 7.57256C12.6212 7.32002 12.7597 7.04028 12.8558 6.73386C12.9519 6.42737 13 6.10761 13 5.77417C13 4.96776 12.7111 4.30395 12.1339 3.78224C11.5564 3.26084 10.7656 3 9.76204 3C8.96188 3 8.30147 3.1792 7.781 3.53729ZM8.93549 13.4847C8.75494 13.657 8.66478 13.8665 8.66478 14.1129C8.66478 14.3496 8.75494 14.5564 8.93549 14.7339C9.11577 14.9114 9.33892 15 9.60439 15C9.87687 15 10.1124 14.9114 10.3112 14.7339C10.5099 14.5565 10.6093 14.3496 10.6093 14.1129C10.6093 13.8665 10.5099 13.657 10.3112 13.4847C10.1124 13.3123 9.87687 13.2258 9.60439 13.2258C9.33892 13.2258 9.11577 13.3123 8.93549 13.4847Z" fill="white"/>
<defs>
<linearGradient id="paint0_linear_0_2723" x1="-0.556796" y1="12.4174" x2="12.4169" y2="25.3912" gradientUnits="userSpaceOnUse">
<stop stop-color="#62E1FB"/>
<stop offset="1" stop-color="#00A2F3"/>
</linearGradient>
<linearGradient id="paint1_linear_0_2723" x1="19.6826" y1="6.10233" x2="7.275" y2="-2.1442" gradientUnits="userSpaceOnUse">
<stop stop-color="#00A2F3" stop-opacity="0.01"/>
<stop offset="1" stop-color="#0075CD"/>
</linearGradient>
<linearGradient id="paint2_linear_0_2723" x1="12.9232" y1="15.9513" x2="10.6607" y2="12.6558" gradientUnits="userSpaceOnUse">
<stop stop-color="#00A2F3" stop-opacity="0.01"/>
<stop offset="1" stop-color="#0075CD"/>
</linearGradient>
</defs>
</svg>
