<svg width="22" height="21" viewBox="0 0 22 21" fill="none" xmlns="http://www.w3.org/2000/svg">
<path fill-rule="evenodd" clip-rule="evenodd" d="M10.909 11.089C10.9402 11.1183 10.975 11.145 11.0108 11.1664C11.1382 11.2411 11.2725 11.2785 11.4126 11.2785C11.5597 11.2785 11.7056 11.2344 11.921 11.0849L21.4504 2.14436C21.5928 2.01221 21.6704 1.81199 21.6646 1.60242C21.6577 1.39286 21.5662 1.19931 21.4168 1.07917C21.0255 0.765493 20.5681 0.599976 20.0957 0.599976H2.72727C2.25369 0.599976 1.79632 0.765493 1.40611 1.07917C1.25674 1.19797 1.16527 1.39152 1.15832 1.60242C1.15137 1.81065 1.23011 2.01221 1.37137 2.14436L10.909 11.089Z" fill="#B7C0C2"/>
<path fill-rule="evenodd" clip-rule="evenodd" d="M21.0563 12.3972C21.3759 12.3972 22 9.21234 22 8.84393V5.27196C22 5.01435 21.8715 4.77942 21.67 4.66863C21.4685 4.56051 21.2288 4.59254 21.0563 4.75406L12.1729 13.0873L12.0711 13.1647C11.4041 13.6372 10.5832 13.6613 9.82937 13.0873L0.943684 4.75406C0.772316 4.59121 0.532632 4.55917 0.33 4.66863C0.128526 4.77942 0 5.01301 0 5.27063V17.5202C0 18.9925 1.03863 20.1899 2.31579 20.1899H13.4084C13.5763 20.1899 13.7349 20.1058 13.8461 19.9603C13.9549 19.8134 14.0047 19.6199 13.9816 19.4277C13.9225 18.9538 13.8947 18.5587 13.8947 18.1876C13.8947 13.4037 17.2712 9.51134 21.4211 9.51134L21.0563 12.3972Z" fill="#B7C0C2"/>
<path fill-rule="evenodd" clip-rule="evenodd" d="M0.943684 12.3972C0.624105 12.3972 0 9.21234 0 8.84393V5.27196C0 5.01435 0.128527 4.77942 0.33 4.66863C0.531473 4.56051 0.771158 4.59254 0.943684 4.75406L9.82705 13.0873L9.92895 13.1647C10.5959 13.6372 11.4168 13.6613 12.1706 13.0873L21.0563 4.75406C21.2277 4.59121 21.4674 4.55917 21.67 4.66863C21.8715 4.77942 22 5.01301 22 5.27063V17.5202C22 18.9925 20.9614 20.1899 19.6842 20.1899H8.59158C8.42368 20.1899 8.26505 20.1058 8.15389 19.9603C8.04505 19.8134 7.99526 19.6199 8.01842 19.4277C8.07747 18.9538 8.10526 18.5587 8.10526 18.1876C8.10526 13.4037 4.72884 9.51134 0.578947 9.51134L0.943684 12.3972Z" fill="#B7C0C2"/>
</svg>
