<svg width="19" height="27" viewBox="0 0 19 27" fill="none" xmlns="http://www.w3.org/2000/svg">
<path fill-rule="evenodd" clip-rule="evenodd" d="M16.124 9.66926V13.9064C16.124 16.8173 17.0523 19.3994 18.8838 21.5811C18.9884 21.7055 19.0261 21.8892 18.9817 22.0569C18.9373 22.2251 18.8186 22.3499 18.6735 22.3796L14.9437 23.1517C14.2437 23.2968 13.6082 23.4127 13.01 23.5074C12.3246 25.12 10.9773 26.1555 9.5046 26.1555C8.03232 26.1555 6.68541 25.121 5.99958 23.5088C5.39864 23.4137 4.75997 23.2973 4.05645 23.1517L0.326222 22.3796C0.181195 22.3495 0.0621071 22.2246 0.018088 22.0569C-0.0259311 21.8887 0.0117996 21.7055 0.115952 21.5811C1.86453 19.4979 2.7512 16.9158 2.7512 13.9064V9.66644C2.76692 6.68954 4.5104 4.3981 6.23107 3.44741C6.62685 3.22882 7.04346 3.06582 7.46754 2.9325V2.5999C7.46754 1.30107 8.3491 0.244385 9.43267 0.244385C10.5163 0.244385 11.3978 1.30107 11.3978 2.5999V2.88821C11.8694 3.02436 12.332 3.20291 12.7714 3.44317C14.3286 4.29634 16.1409 6.43891 16.124 9.66926ZM9.43268 1.18658C8.78262 1.18658 8.2536 1.82068 8.2536 2.59989V2.71437C9.03022 2.5655 9.82846 2.55796 10.6118 2.69081V2.59989C10.6118 1.82068 10.0828 1.18658 9.43268 1.18658ZM5.10934 10.1376H5.10698C4.89003 10.1357 4.71514 9.92373 4.71631 9.66368C4.72811 7.45797 6.19095 6.06304 7.05404 5.58676C8.56681 4.75055 10.4317 4.75196 11.9547 5.58581C12.152 5.6937 12.2389 5.97306 12.1489 6.21002C12.0585 6.44652 11.8254 6.5511 11.6277 6.44228C10.3099 5.72008 8.69218 5.71819 7.3834 6.44228C6.68892 6.82576 5.5118 7.93709 5.50276 9.66933C5.50119 9.92891 5.32511 10.1376 5.10934 10.1376ZM9.50422 25.2129C10.5005 25.2129 11.4316 24.6193 12.0286 23.6479L12.0133 23.6493C11.8915 23.6642 11.7731 23.6766 11.6545 23.689C11.6384 23.6907 11.6223 23.6924 11.6061 23.6941C11.5824 23.6967 11.5586 23.6993 11.5348 23.702C11.4724 23.709 11.4099 23.7161 11.3491 23.7219C11.3107 23.7253 11.273 23.7282 11.2354 23.7311C11.2068 23.7333 11.1783 23.7354 11.1494 23.7379C10.0085 23.8354 8.95634 23.8349 7.8142 23.735C7.79672 23.7336 7.77936 23.7324 7.76202 23.7311C7.72674 23.7284 7.69152 23.7258 7.65542 23.7223C7.61531 23.7184 7.57437 23.7138 7.53339 23.7092C7.50006 23.7054 7.46671 23.7017 7.43375 23.6983C7.2844 23.6832 7.13505 23.6677 6.98098 23.6488H6.98059C7.5776 24.6193 8.50829 25.2129 9.50422 25.2129Z" fill="#B7C0C2"/>
</svg>
