<svg width="17" height="18" viewBox="0 0 17 18" fill="none" xmlns="http://www.w3.org/2000/svg">
<path fill-rule="evenodd" clip-rule="evenodd" d="M11.7697 10.5611C11.6295 10.4981 11.4698 10.5325 11.361 10.6478L8.66625 13.554C8.55825 13.671 8.433 13.7602 8.292 13.8207L4.542 15.4571C4.12875 15.6387 3.64275 15.5275 3.32925 15.1855C3.0105 14.8385 2.91225 14.319 3.08025 13.8625L4.58025 9.77155C4.63575 9.61855 4.71825 9.48191 4.824 9.36409L11.8538 1.60773C11.9445 1.50709 11.982 1.36227 11.9513 1.22564C11.7952 0.503182 11.253 0 10.632 0H9.75C9.54225 0 9.375 0.182455 9.375 0.409091V1.13645C9.375 1.25264 9.42 1.36309 9.49875 1.44082C9.66 1.60036 9.75 1.81555 9.75 2.04545C9.75 2.49709 9.41325 2.86364 9 2.86364C8.586 2.86364 8.25 2.49709 8.25 2.04545C8.25 1.81555 8.33925 1.60036 8.50125 1.44082C8.57925 1.36309 8.625 1.25264 8.625 1.13645V0.409091C8.625 0.182455 8.457 0 8.25 0H6.75C6.54225 0 6.375 0.182455 6.375 0.409091V1.13645C6.375 1.25264 6.42 1.36309 6.49875 1.44082C6.66075 1.60036 6.75 1.81555 6.75 2.04545C6.75 2.49709 6.41325 2.86364 6 2.86364C5.586 2.86364 5.25 2.49709 5.25 2.04545C5.25 1.81555 5.33925 1.60036 5.50125 1.44082C5.57925 1.36309 5.625 1.25264 5.625 1.13645V0.409091C5.625 0.182455 5.457 0 5.25 0H3.75C3.54225 0 3.375 0.182455 3.375 0.409091V1.13645C3.375 1.25264 3.42 1.36309 3.49875 1.44082C3.66 1.60036 3.75 1.81555 3.75 2.04545C3.75 2.49709 3.41325 2.86364 3 2.86364C2.586 2.86364 2.25 2.49709 2.25 2.04545C2.25 1.81555 2.33925 1.60036 2.50125 1.44082C2.57925 1.36309 2.625 1.25264 2.625 1.13645V0.409091C2.625 0.182455 2.457 0 2.25 0H1.36725C0.6135 0 0 0.733909 0 1.63636V16.3636C0 17.2653 0.6135 18 1.36725 18H10.632C11.3857 18 12 17.2653 12 16.3636V10.9383C12 10.7738 11.9092 10.6241 11.7697 10.5611Z" fill="#466EE9"/>
<path fill-rule="evenodd" clip-rule="evenodd" d="M9.53122 10L9.40258 9.69752C9.36992 9.62249 9.31793 9.56074 9.25328 9.52322L9 9.37472L14.4361 3L15 3.66123L9.53122 10ZM7.89968 12.0343L6.4755 13L6 12.1943L6.51899 10H7.01305L7.22296 10.7105C7.22586 10.7193 7.23282 10.7223 7.2363 10.7321C7.24848 10.7684 7.25892 10.8067 7.27747 10.8371C7.29545 10.8695 7.31806 10.8862 7.33952 10.9078C7.34532 10.9136 7.34706 10.9244 7.35286 10.9293L7.84575 11.3474L8 11.8675L7.89968 12.0343ZM13.4426 2L14 2.65785L8.61946 9L8.49478 8.70451C8.4387 8.57232 8.32457 8.48989 8.19923 8.48989H8L13.4426 2ZM16.5864 1.29229L15.8805 0.467862C15.3475 -0.155404 14.4193 -0.157053 13.8828 0.469511L6.51632 9.17298L6.51491 9.17463L6.5142 9.17546C6.50926 9.18123 6.50714 9.18947 6.50291 9.19607C6.4775 9.22987 6.4542 9.26697 6.43867 9.30901C6.43797 9.31066 6.43797 9.31149 6.43726 9.31231L5.02551 13.4344C4.97257 13.5878 5.00363 13.7626 5.10386 13.8788C5.17163 13.958 5.26127 14 5.35304 14C5.39751 14 5.44198 13.9901 5.48433 13.9711L9.01371 12.3223C9.05748 12.3009 9.09701 12.2704 9.13089 12.2316L16.5864 3.62377C16.8532 3.31213 17 2.89827 17 2.45803C17 2.01778 16.8532 1.60392 16.5864 1.29229Z" fill="#466EE9"/>
</svg>
