<svg width="26" height="26" viewBox="0 0 26 26" fill="none" xmlns="http://www.w3.org/2000/svg">
<path fill-rule="evenodd" clip-rule="evenodd" d="M22.7471 15.4072L20.952 14.4153C21.1323 13.4797 21.1323 12.5203 20.952 11.5847L22.7471 10.5928C22.9521 10.4795 23.0473 10.2452 22.9771 10.0289C22.5108 8.5917 21.7147 7.29332 20.6735 6.21494C20.513 6.04863 20.2536 6.01089 20.0487 6.12405L18.255 7.11578C17.5004 6.49675 16.6327 6.01652 15.6958 5.69925V3.71603C15.6958 3.48914 15.531 3.29305 15.2997 3.24333C13.753 2.91071 12.1716 2.92708 10.6992 3.24361C10.4683 3.29328 10.3043 3.48956 10.3043 3.71611V5.69929C9.36733 6.01657 8.49969 6.49681 7.745 7.11582L5.9513 6.12409C5.74644 6.01093 5.48704 6.04867 5.32655 6.21498C4.28535 7.29336 3.48925 8.59174 3.02296 10.0289C2.95275 10.2453 3.0479 10.4796 3.25291 10.5928L5.04796 11.5847C4.86766 12.5204 4.86766 13.4797 5.04796 14.4153L3.25286 15.4072C3.04786 15.5205 2.95271 15.7548 3.02292 15.9711C3.48921 17.4083 4.28535 18.7067 5.32651 19.7851C5.48699 19.9514 5.7464 19.9891 5.95125 19.8759L7.74496 18.8842C8.49963 19.5032 9.36728 19.9835 10.3042 20.3007V22.284C10.3042 22.5109 10.469 22.707 10.7003 22.7567C12.247 23.0893 13.8284 23.0729 15.3008 22.7564C15.5317 22.7067 15.6957 22.5104 15.6957 22.2839V20.3007C16.6327 19.9835 17.5003 19.5032 18.255 18.8842L20.0487 19.8759C20.2536 19.9891 20.513 19.9514 20.6734 19.7851C21.7147 18.7067 22.5107 17.4083 22.977 15.9711C23.0473 15.7547 22.9521 15.5205 22.7471 15.4072ZM13.0001 9.77413C14.8582 9.77413 16.3698 11.2212 16.3698 12.9999C16.3698 14.7786 14.8582 16.2257 13.0001 16.2257C11.142 16.2257 9.63037 14.7786 9.63037 12.9999C9.63037 11.2212 11.142 9.77413 13.0001 9.77413Z" fill="#466EE9"/>
</svg>
