<svg width="15" height="18" viewBox="0 0 15 18" fill="none" xmlns="http://www.w3.org/2000/svg">
<path fill-rule="evenodd" clip-rule="evenodd" d="M8.86364 14.7273H12.2727V13.0909H8.86364V14.7273ZM2.72727 4.90909H6.13636V3.27273H2.72727V4.90909ZM8.86364 4.90909H12.2727V3.27273H8.86364V4.90909ZM8.86364 9.81818H12.2727V8.18182H8.86364V9.81818ZM2.72727 9.81818H6.13636V8.18182H2.72727V9.81818ZM2.72727 14.7273H6.13636V13.0909H2.72727V14.7273ZM14.6591 0H0.340909C0.152727 0 0 0.183273 0 0.409091V17.5909C0 17.8167 0.152727 18 0.340909 18H14.6591C14.8473 18 15 17.8167 15 17.5909V0.409091C15 0.183273 14.8473 0 14.6591 0Z" fill="#466EE9"/>
</svg>
