<svg width="26" height="26" viewBox="0 0 26 26" fill="none" xmlns="http://www.w3.org/2000/svg">
<path d="M13.0629 6.5C14.0355 6.5 14.824 5.7165 14.824 4.75C14.824 3.7835 14.0355 3 13.0629 3C12.0904 3 11.3019 3.7835 11.3019 4.75C11.3019 5.7165 12.0904 6.5 13.0629 6.5Z" fill="#466EE9"/>
<path d="M13.7375 6.87582C13.7293 6.8756 13.721 6.87538 13.7128 6.87524H12.4128C11.0797 6.9003 10.0193 8.00137 10.0444 9.33451C10.0445 9.34273 10.0447 9.35095 10.045 9.35917V9.73059C10.045 9.91632 10.1146 10.1252 10.3235 10.1252H15.8021C16.011 10.1252 16.0806 9.91632 16.0806 9.73059V9.35917C16.1193 8.02638 15.0703 6.91452 13.7375 6.87582Z" fill="#466EE9"/>
<path d="M5.48622 14.6248C5.67838 14.6248 5.83417 14.4677 5.83417 14.2741C5.82933 12.0736 6.81988 9.99094 8.52494 8.61652C8.67061 8.51109 8.70396 8.3066 8.59935 8.15978C8.59078 8.14774 8.58141 8.13633 8.57134 8.12559C8.44911 7.97815 8.23186 7.9573 8.08423 8.07883C6.22178 9.58749 5.13839 11.8659 5.13831 14.2741C5.13831 14.4678 5.29406 14.6248 5.48622 14.6248Z" fill="#466EE9"/>
<path d="M15.403 21.1429C13.8935 21.6482 12.2653 21.6482 10.7559 21.1429C10.57 21.0815 10.3705 21.1855 10.3102 21.3752C10.3093 21.378 10.3085 21.3808 10.3077 21.3836C10.2595 21.5753 10.3615 21.773 10.5435 21.841C11.3587 22.1114 12.2104 22.2495 13.0676 22.2502C13.9422 22.2511 14.8109 22.1047 15.6388 21.8169C15.8124 21.7254 15.8805 21.5076 15.7908 21.3304C15.7177 21.1859 15.5589 21.1091 15.403 21.1429Z" fill="#466EE9"/>
<path d="M17.2385 8.38261C17.24 8.38363 17.2415 8.38466 17.243 8.38568C19.15 9.74056 20.285 11.9348 20.2897 14.2758C20.2897 14.4686 20.4459 14.625 20.6385 14.625C20.8312 14.625 20.9874 14.4686 20.9874 14.2758C20.981 11.7035 19.7336 9.29286 17.6384 7.80367C17.4757 7.70532 17.2652 7.74547 17.15 7.8968C17.0404 8.05544 17.08 8.27294 17.2385 8.38261Z" fill="#466EE9"/>
<path d="M6.0187 19.375C6.99127 19.375 7.7797 18.5915 7.7797 17.625C7.7797 16.6585 6.99127 15.875 6.0187 15.875C5.04612 15.875 4.25769 16.6585 4.25769 17.625C4.25769 18.5915 5.04612 19.375 6.0187 19.375Z" fill="#466EE9"/>
<path d="M6.69353 19.7506C6.68531 19.7504 6.67709 19.7501 6.66887 19.75H5.36888C4.03574 19.7751 2.97533 20.8761 3.00044 22.2093C3.00057 22.2175 3.00079 22.2257 3.00101 22.2339V22.6053C3.00101 22.7911 3.07064 23 3.27957 23H8.75814C8.96707 23 9.0367 22.7911 9.0367 22.6053V22.2339C9.07544 20.9011 8.02636 19.7893 6.69353 19.7506Z" fill="#466EE9"/>
<path d="M20.1068 19.375C21.0793 19.375 21.8678 18.5915 21.8678 17.625C21.8678 16.6585 21.0793 15.875 20.1068 15.875C19.1342 15.875 18.3458 16.6585 18.3458 17.625C18.3458 18.5915 19.1342 19.375 20.1068 19.375Z" fill="#466EE9"/>
<path d="M20.6558 19.7506C20.6476 19.7504 20.6394 19.7501 20.6312 19.75H19.3312C17.9981 19.7751 16.9377 20.8761 16.9628 22.2093C16.9629 22.2175 16.9631 22.2257 16.9634 22.2339V22.6053C16.9634 22.7911 17.033 23 17.2419 23H22.7205C22.9294 23 22.999 22.7911 22.999 22.6053V22.2339C23.0377 20.9011 21.9887 19.7893 20.6558 19.7506Z" fill="#466EE9"/>
</svg>
