<svg width="18" height="18" viewBox="0 0 18 18" fill="none" xmlns="http://www.w3.org/2000/svg">
<path d="M9.0566 3.15C9.93192 3.15 10.6415 2.44485 10.6415 1.575C10.6415 0.705152 9.93192 0 9.0566 0C8.18128 0 7.47169 0.705152 7.47169 1.575C7.47169 2.44485 8.18128 3.15 9.0566 3.15Z" fill="#466EE9"/>
<path d="M9.6638 3.48807C9.65641 3.48787 9.64901 3.48767 9.64161 3.48755H8.47162C7.27179 3.5101 6.31746 4.50106 6.34001 5.70088C6.34013 5.70828 6.34033 5.71568 6.34053 5.72308V6.05736C6.34053 6.22452 6.4032 6.41255 6.59123 6.41255H11.522C11.71 6.41255 11.7727 6.22452 11.7727 6.05736V5.72308C11.8075 4.52357 10.8633 3.5229 9.6638 3.48807Z" fill="#466EE9"/>
<path d="M2.23765 10.4625C2.41059 10.4625 2.55081 10.3212 2.55081 10.1469C2.54646 8.16647 3.43795 6.29206 4.9725 5.05508C5.10361 4.9602 5.13362 4.77616 5.03947 4.64402C5.03176 4.63319 5.02333 4.62292 5.01426 4.61325C4.90425 4.48055 4.70873 4.46179 4.57587 4.57117C2.89966 5.92896 1.92461 7.97949 1.92453 10.1469C1.92453 10.3212 2.06471 10.4625 2.23765 10.4625Z" fill="#466EE9"/>
<path d="M11.1625 16.3284V16.3284C9.80399 16.7832 8.33865 16.7832 6.98014 16.3284C6.8128 16.2731 6.63327 16.3667 6.57906 16.5374C6.57825 16.54 6.57748 16.5425 6.57675 16.545C6.53339 16.7175 6.62519 16.8955 6.78903 16.9567C7.52268 17.2001 8.28924 17.3243 9.06067 17.325C9.8478 17.3258 10.6297 17.194 11.3748 16.935C11.531 16.8527 11.5923 16.6566 11.5116 16.4972C11.4458 16.3671 11.3028 16.298 11.1625 16.3284Z" fill="#466EE9"/>
<path d="M12.8147 4.84425C12.816 4.84517 12.8174 4.84609 12.8187 4.84702C14.5351 6.06641 15.5566 8.04122 15.5607 10.1481C15.5607 10.3217 15.7013 10.4624 15.8747 10.4624C16.0481 10.4624 16.1887 10.3217 16.1887 10.1481C16.1829 7.83308 15.0602 5.66347 13.1746 4.3232C13.0282 4.23469 12.8387 4.27083 12.735 4.40702C12.6364 4.5498 12.6721 4.74555 12.8147 4.84425Z" fill="#466EE9"/>
<path d="M2.71698 14.7374C3.5923 14.7374 4.30189 14.0323 4.30189 13.1624C4.30189 12.2926 3.5923 11.5874 2.71698 11.5874C1.84166 11.5874 1.13208 12.2926 1.13208 13.1624C1.13208 14.0323 1.84166 14.7374 2.71698 14.7374Z" fill="#466EE9"/>
<path d="M3.32418 15.0755C3.31678 15.0753 3.30939 15.0751 3.30199 15.075H2.13199C0.932166 15.0975 -0.0222014 16.0885 0.000393051 17.2883C0.000513021 17.2957 0.000712972 17.3031 0.000912924 17.3105V17.6448C0.000912924 17.8119 0.0635776 18 0.251612 18H5.18233C5.37036 18 5.43303 17.8119 5.43303 17.6448V17.3105C5.4679 16.1109 4.52373 15.1103 3.32418 15.0755Z" fill="#466EE9"/>
<path d="M15.3962 14.7374C16.2715 14.7374 16.9811 14.0323 16.9811 13.1624C16.9811 12.2926 16.2715 11.5874 15.3962 11.5874C14.5209 11.5874 13.8113 12.2926 13.8113 13.1624C13.8113 14.0323 14.5209 14.7374 15.3962 14.7374Z" fill="#466EE9"/>
<path d="M15.8902 15.0755C15.8828 15.0753 15.8754 15.0751 15.868 15.075H14.698C13.4982 15.0975 12.5439 16.0885 12.5664 17.2883C12.5666 17.2957 12.5668 17.3031 12.567 17.3105V17.6448C12.567 17.8119 12.6296 18 12.8176 18H17.7484C17.9364 18 17.9991 17.8119 17.9991 17.6448V17.3105C18.0339 16.1109 17.0897 15.1103 15.8902 15.0755Z" fill="#466EE9"/>
</svg>
