<svg width="41" height="35" viewBox="0 0 41 35" fill="none" xmlns="http://www.w3.org/2000/svg">
<path fill-rule="evenodd" clip-rule="evenodd" d="M28.2088 11.5971C27.9668 9.23375 26.6375 7.19775 24.7417 5.99458C24.7919 2.67721 27.4602 0.00103587 30.7497 0C34.071 0 36.7629 2.72486 36.7629 6.08677C36.7629 9.44817 34.071 12.173 30.7497 12.173C29.84 12.173 28.9819 11.9628 28.2088 11.5971ZM26.8155 12.3704C26.8155 15.7318 24.1236 18.4571 20.8024 18.4571C17.4817 18.4571 14.7882 15.7323 14.7882 12.3709C14.7882 9.00948 17.4817 6.28411 20.8024 6.28411C24.1231 6.28411 26.8155 9.00897 26.8155 12.3704ZM23.3531 18.872H18.2507C14.0054 18.872 10.5516 22.3686 10.5516 26.6659V32.9821L10.5675 33.081L10.9973 33.2173C15.0487 34.4986 18.5685 34.9259 21.4655 34.9259C27.1241 34.9259 30.4039 33.2929 30.606 33.1888L31.0076 32.9832H31.0506V26.6659C31.0521 22.3686 27.5984 18.872 23.3531 18.872ZM28.2385 12.5884H33.3014C37.5462 12.5884 41 16.0845 41 20.3813V26.6996H40.957L40.5554 26.9057C40.3655 27.002 37.4848 28.4362 32.4858 28.6216V26.6752C32.4858 22.4913 29.7249 18.9492 25.9513 17.8133C27.319 16.4854 28.1837 14.6389 28.2385 12.5884ZM10.2513 12.1741C11.4276 12.1741 12.5221 11.8265 13.4492 11.2345C13.7439 9.28865 14.7744 7.58827 16.2465 6.43017C16.2483 6.39594 16.2506 6.3618 16.2529 6.32768L16.2529 6.32761C16.2581 6.24816 16.2634 6.16875 16.2634 6.08833C16.2634 2.72641 13.571 0.00155381 10.2513 0.00155381C6.92953 0.00155381 4.23815 2.72641 4.23815 6.08833C4.23815 9.44869 6.92953 12.1741 10.2513 12.1741ZM13.3658 12.6174C13.4287 14.6555 14.2904 16.4921 15.6514 17.8133C11.8769 18.9502 9.11691 22.4913 9.11589 26.6752V28.5828C6.59643 28.4336 3.69578 27.9602 0.445663 26.9331L0.0158617 26.7959L0 26.6985V20.3813C0 16.0845 3.45376 12.5884 7.69908 12.5884H12.8009C12.9786 12.5884 13.1514 12.6014 13.3255 12.6144C13.3389 12.6154 13.3524 12.6164 13.3658 12.6174Z" fill="#466EE9"/>
</svg>
