<svg width="45" height="40" viewBox="0 0 45 40" fill="none" xmlns="http://www.w3.org/2000/svg">
<path fill-rule="evenodd" clip-rule="evenodd" d="M31.7966 14.4671C30.7705 14.2928 30.1871 13.3082 29.8704 12.3168C29.4928 11.1349 28.8489 10.0795 28.014 9.22579C27.2953 8.49088 26.7004 7.53965 26.9718 6.54821C27.6902 3.92357 30.0034 2.00089 32.7496 2C36.0709 2 38.7628 4.80865 38.7628 8.27396C38.7628 11.7387 36.0709 14.5474 32.7496 14.5474C32.4249 14.5474 32.1067 14.5198 31.7966 14.4671ZM28.8156 14.7508C28.8156 18.2156 26.1237 21.0248 22.8025 21.0248C19.4817 21.0248 16.7883 18.2161 16.7883 14.7513C16.7883 11.2866 19.4817 8.47738 22.8025 8.47738C26.1232 8.47738 28.8156 11.286 28.8156 14.7508ZM25.3529 21.4524H20.2506C16.0053 21.4524 12.5515 25.0565 12.5515 29.4859V35.9849C12.5515 35.9925 12.5521 36.0002 12.5533 36.0078V36.0078C12.5619 36.0634 12.601 36.1094 12.6545 36.1268L12.9972 36.2388C17.0486 37.5596 20.5683 38 23.4654 38C29.1239 38 32.4037 36.3167 32.6058 36.2094L32.9999 36.0015C33.0049 35.9988 33.0104 35.9975 33.016 35.9975V35.9975C33.035 35.9975 33.0504 35.9821 33.0504 35.963V29.4859C33.052 25.0565 29.5982 21.4524 25.3529 21.4524ZM29.8598 17.2216C30.2367 16.0448 31.2236 14.9756 32.4593 14.9756H35.3015C39.5463 14.9756 43.0001 18.5791 43.0001 23.0081V29.4862C43.0001 29.5052 42.9846 29.5207 42.9656 29.5207V29.5207C42.96 29.5207 42.9545 29.522 42.9495 29.5247L42.5554 29.7331C42.3926 29.8183 40.2494 30.9183 36.4875 31.35C35.3992 31.4748 34.4859 30.591 34.4859 29.4956V29.4956C34.4859 26.5685 33.214 23.9461 31.2168 22.1972C29.9268 21.0676 29.3368 18.8545 29.8598 17.2216V17.2216ZM12.2512 14.5484C12.9536 14.5484 13.6268 14.4207 14.2527 14.1878C15.0545 13.8895 15.4907 13.0857 15.7551 12.272C16.2169 10.8511 17.0626 9.61455 18.1646 8.69511C18.2164 8.65194 18.2484 8.58945 18.2527 8.5222V8.5222C18.258 8.44028 18.2632 8.35842 18.2632 8.27552C18.2632 4.81021 15.5709 2.00156 12.2512 2.00156C8.92941 2.00156 6.23804 4.81021 6.23804 8.27552C6.23804 11.7392 8.92941 14.5484 12.2512 14.5484ZM15.3255 15.0024C15.3484 15.0041 15.3663 15.0229 15.3671 15.0459C15.3916 15.7487 15.5055 16.4279 15.6976 17.0715C16.1999 18.7546 15.6272 21.0881 14.3171 22.2582C12.3593 24.0068 11.1166 26.602 11.1159 29.4956V29.4956C11.1159 30.5616 10.2162 31.4115 9.15835 31.2805C7.1265 31.0289 4.88447 30.5558 2.44566 29.7614L2.10138 29.6481C2.04887 29.6308 2.01044 29.5856 2.00181 29.531V29.531C2.0006 29.5234 2 29.5157 2 29.508V23.0081C2 18.5791 5.45375 14.9756 9.69906 14.9756H14.8009C14.9786 14.9756 15.1514 14.9889 15.3255 15.0024V15.0024Z" fill="#466EE9"/>
</svg>
